<?xml version="1.0" encoding="UTF-8"?>
<svg id="a" width="207.58" height="207.58" version="1.1" xml:space="preserve" xmlns="http://www.w3.org/2000/svg"><g id="b" transform="matrix(1.25 0 0 -1.25 -1.4531 114.98)"><g id="c" transform="translate(0 -37.553)"><path id="d" d="m43.912 2.0273c-6.225 0-11.981 0.91875-17.269 2.7562-5.25 1.8375-9.7688 4.575-13.556 8.2125-3.7875 3.6375-6.7312 8.175-8.8312 13.612-2.0625 5.4375-3.0938 11.719-3.0938 18.844 0 6.6375 0.99375 12.656 2.9812 18.056 1.9875 5.3996 4.875 10.031 8.6624 13.894 3.6376 3.7122 8.1376 6.5809 13.5 8.6063 5.4 2.0246 11.288 3.0371 17.663 3.0375 3.525-4e-4 6.6933-0.2066 9.5062-0.6188 2.8496-0.3753 5.4746-0.8816 7.875-1.5187 2.5121-0.7129 4.7809-1.5191 6.8062-2.4188 2.0622-0.8628 3.8622-1.6691 5.4-2.4187v-20.306h-2.475c-1.0503 0.9-2.3816 1.9684-3.9937 3.2063-1.5754 1.2371-3.3754 2.4559-5.4 3.6562-2.0629 1.1997-4.2941 2.2122-6.6937 3.0375-2.4004 0.8247-4.9688 1.2372-7.7063 1.2375-3.0375-3e-4 -5.925-0.4878-8.6625-1.4625-2.7375-0.9378-5.2688-2.5128-7.5938-4.725-2.2124-2.1378-4.0124-4.9687-5.4-8.4937-1.35-3.525-2.025-7.8-2.025-12.825 0-5.25 0.7313-9.6375 2.1938-13.162 1.5-3.525 3.375-6.3 5.625-8.325 2.2875-2.0625 4.8375-3.5438 7.65-4.4438 2.8125-0.8625 5.5875-1.2937 8.325-1.2937 2.625 0 5.2121 0.3937 7.7625 1.1812 2.5871 0.7875 4.9684 1.8563 7.1437 3.2063 1.8372 1.0875 3.5434 2.25 5.1188 3.4875 1.5746 1.2375 2.8684 2.3062 3.8812 3.2062h2.25v-20.025c-2.1003-0.9375-4.1066-1.8188-6.0187-2.6438-1.9129-0.825-3.9191-1.5375-6.0187-2.1375-2.7379-0.7875-5.3067-1.3875-7.7063-1.8-2.4004-0.4125-5.7-0.61875-9.9-0.61875" fill="#11568c"/><path id="e" d="m167.22 4.5082h-22.331l-5.794 16.931h-31.05l-5.794-16.931h-21.768l30.938 83.756h24.863l30.937-83.756m-33.356 32.288-10.294 30.038-10.294-30.038h20.588" fill="#11568c"/><path id="f" d="m52.966 68.446c-3.6738-0.1871-7.7344-3.2203-8.1344-7.3883-0.4417-4.598 1.7786-7.1976 5.1626-8.9816 1.6921-0.8922 3.6476-1.1504 5.6164-0.8313 1.9683 0.3192 3.8996 1.2778 5.2886 3.2239 0.5774 0.8136 0.3856 1.941-0.4281 2.5183-0.8137 0.5774-1.941 0.3856-2.5184-0.4281-0.8914-1.2488-1.8597-1.5906-2.9214-1.7629-1.0618-0.1723-2.2473-0.1027-3.3497 0.4785-2.2046 1.1621-3.4374 2.9988-3.2992 5.4609 0.1391 2.47 2.6168 4.0575 4.9614 4.109 2.3449 0.052 4.5949-1.0675 5.3894-4.1804 0.0942-0.6871 0.5746-1.2473 1.2344-1.4606 0.6594-0.2137 1.3851-0.0488 1.8637 0.4531 0.4781 0.502 0.6226 1.2403 0.3777 1.8887-1.1832 4.6344-5.2047 6.9836-8.966 6.9008-0.0879-2e-3 -0.1887 0.0043-0.277 0zm-50.369-1.1332c-0.05546-7e-3 -0.10859-0.0332-0.15117-0.0504-0.0125-0.0055-0.03906-0.0191-0.05039-0.0254-0.00351-0.0023-0.02187-0.0226-0.025-0.025-0.00664-0.0051-0.01953-0.0199-0.02539-0.0254-0.00547-0.0055-0.01992-0.0191-0.025-0.025-0.00234-0.0031-0.02305-0.0219-0.02539-0.0254-0.00586-0.0101-0.0207-0.039-0.025-0.0504-0.00156-0.0035 0.00117-0.0211 0-0.025-0.00352-0.0117-0.02305-0.0375-0.02539-0.0504-3.9e-4 -0.0043 7.8e-4 -0.0207 0-0.025-0.04102-0.4816 1.448-2.0425 2.0402-2.6445 0.61016-0.6211 5.6524-4.6558 8.4871-6.573 2.8527-1.9297 9.4066-5.4223 11.081-6.2461 1.6594-0.816 6.8145-2.9715 10.225-4.0043 5.8672-1.777 11.895-2.8031 17.73-3.2488 5.8348-0.4454 11.486-0.2961 16.597 0.3023 10.222 1.1965 18.4 3.8824 22.238 8.5879 1.9191 2.3527 2.9098 6.1598 0.7305 8.5375-2.3711 2.5871-7.868 4.6996-8.2102 4.7097-0.0191 0-0.0582 0.0012-0.0754 0-0.0113-0.0011-0.0402 0.0016-0.0504 0-0.0051-0.0011-0.0203 0.0012-0.0254 0-0.0047-0.0015-0.0207-0.0238-0.025-0.0253-0.0043-0.0016-0.0211 0.0019-0.0254 0-0.0117-0.0055-0.0398-0.018-0.0503-0.025-0.0032-0.0028-0.0219-0.0227-0.025-0.0254-0.0028-0.0028-0.0227-0.0223-0.0254-0.025-0.0067-0.0098-0.0196-0.0395-0.025-0.0504-0.0043-0.0117-0.0223-0.0375-0.0254-0.0504-0.0016-0.0086 0.0011-0.041 0-0.0504-4e-4 -0.0047 4e-4 -0.0203 0-0.0254v-0.025c0.0316-0.8516 1.6094-2.7164 2.7785-4.0113 0.9016-0.9981 1.6566-1.6922 1.9832-2.1176 1.2211-1.5898 0.3715-2.7934-0.4047-3.9703-1.8082-2.7414-9.6656-5.8742-19.291-7.0012-4.8129-0.5633-10.141-0.6867-15.64-0.2519-5.4985 0.4347-11.162 1.4078-16.672 3.0726-3.7449 1.1317-8.8692 3.1836-10.754 3.9793-1.9356 0.8168-7.743 3.6235-9.7215 4.6086-1.9625 0.9774-9.3238 5.5328-9.9227 5.9688-0.59882 0.4359-2.1301 0.9871-2.5688 0.932zm41.656-26.243c-0.1821-0.0109-0.3649-0.05-0.504-0.1008-0.0453-0.0175-0.1101-0.0535-0.1511-0.0754-0.0199-0.0113-0.0567-0.0382-0.0754-0.0503-0.0184-0.0126-0.0582-0.0368-0.0754-0.0504-0.0227-0.0188-0.0555-0.0551-0.0758-0.0754-0.0199-0.0211-0.0578-0.0532-0.0754-0.0758-0.0129-0.0172-0.0387-0.0574-0.0504-0.0754-0.03-0.0496-0.0539-0.1203-0.0757-0.1766-0.0254-0.0711-0.0629-0.1707-0.0754-0.2515-0.1094-0.811 0.4429-2.1043 1.6371-3.6266 2.3273-2.968 2.2093-5.3344 2.2414-8.0844 0.0316-2.75-1.7395-5.6957-4.1051-8.4621-2.7258-3.1871-5.8082-5.9094-8.6109-8.0883-2.7844-2.1644-8.2547-5.5171-10.001-6.8714-1.7219-1.3352-3.0551-2.1672-3.3242-2.9211-0.0153-0.04532-0.0418-0.1086-0.0504-0.15118-0.0063-0.03554 0.0019-0.09257 0-0.12617-4e-4 -0.01992-0.0012-0.05625 0-0.07539 0.0015-0.01914-0.0032-0.05703 0-0.07578 0.0039-0.01797 0.0195-0.05781 0.025-0.07539 0.0043-0.01133 0.0207-0.03906 0.0254-0.05039 5e-3 -0.01094 0.0191-0.03945 0.025-0.05039 0.0129-0.0211 0.0347-0.05586 0.0503-0.07539 0.0043-0.00508 0.0211-0.02071 0.0254-0.02539 0.0043-0.00469 0.0204-0.02032 0.025-0.025 0.0051-0.00469 0.0204-0.02071 0.0254-0.02539 0.0625-0.05196 0.1614-0.11211 0.252-0.15118 0.6336-0.25625 1.9394-0.19765 3.9539 0.35274 1.5758 0.43086 3.466 1.0809 4.7348 1.5613 1.3023 0.49375 7.4964 3.8465 10.9 6.3152 3.3785 2.4508 7.1421 6.2141 8.7437 8.3172 1.5879 2.0848 4.1262 5.3235 4.332 11.837 0.1371 4.3528-0.8191 7.275-5.4902 9.9731-1.9402 1.1207-3.3578 1.5898-4.2562 1.5363" fill="#00be00" fill-rule="evenodd"/><path id="g" d="m129.83 3.3055c-6.472 1.9762-12.85 4.2133-16.877 7.4433-4.217 3.3824-5.152 4.8008-7.53 8.0746-2.981 4.1043-5.963 12.599-6.2228 20.596-0.1933 5.9375 0.625 10.764 2.5268 15.156 1.631 3.7664 5.072 8.5133 6.686 8.3586 1.679-0.1613 1.279-2.2199 0.18-6.8606-1.297-5.4804-1.47-6.925-1.478-12.354-0.01-6.5406 0.6-9.6316 2.815-16.239 0.916-2.734 2.057-6.1301 5.272-9.7508 2.563-2.8879 6.173-5.682 12.717-9.3027 5.263-2.9117 6.692-4.2023 6.768-5.0742 0.035-0.39531-0.372-0.6789-1.093-0.69336-0.968-0.02031-2.37 0.2211-3.764 0.64649zm21.934 46.926c-4.218 1.0309-5.818 2.0684-8.88 3.3672-9.679 4.1055-16.489 7.1496-18.555 7.8805-2.701 0.9551-11.264 3.9285-16.357 5.1039-5.765 1.3309-14.241 2.9652-17.53 3.1434-2.9926 0.1621-7.2531-0.2672-9.0598-1.286-2.1546-1.2152-1.8187-3.4172 0.9403-7.9953 0.4918-0.816 0.9805-1.3461 0.7773-1.6984-0.1883-0.327-1.2652-0.0403-2.1808 0.3894-1.2336 0.5786-2.975 2.3145-3.918 3.7668-2.2016 3.3914-0.9391 7.9172 3.0613 10.115 2.8953 1.5906 6.0739 1.9273 12.674 1.3832 7.3885-0.6094 14.336-2.6278 17.62-3.6188 18.042-5.4453 24.508-8.0371 31.715-11.935 3.36-1.8176 6.375-3.9961 7.171-4.4762 0.656-0.3953 2.991-1.8887 4.027-2.9125 0.414-0.4094 0.563-0.7664 0.493-0.9129-0.152-0.3176-1.51-0.434-1.998-0.3149zm-46.718 24.714c-1.33 0.5957-2.254 1.8926-2.918 3.1254-0.452 0.8375-0.728 2.1266-0.657 3.5387 0.071 1.4113 0.187 2.5601 1.046 4.3691 1.15 2.4199 2.857 4.1508 5.145 5.216 1.478 0.6883 1.758 0.7863 3.623 0.7906 1.88 4e-3 2.433-0.3253 3.476-0.9316 1.303-0.757 1.942-1.8258 2.387-2.8062 0.441-0.968 0.672-1.6102 0.687-3.3622 0.014-1.7671-0.496-3.7812-2.127-6.3027-0.8-1.2375-2.15-2.4558-4.188-3.6012-1.421-0.7988-4.33-0.9964-6.474-0.0359zm6.084 3.3828c1.894 1.6098 2.52 2.9086 2.687 5.4242 0.175 2.6485-1.908 4.425-2.866 4.525-2.517 0.2621-4.761-1.5839-5.281-5.0113-0.111-0.7344-0.044-1.4316 0.239-2.5043 0.308-1.1683 1.074-2.3902 2.313-2.7586 1.277-0.3793 2.257-0.0824 2.908 0.325" fill="#c7ff00"/></g></g></svg>
